<?xml version="1.0" encoding="UTF-8" standalone="no"?>
<!DOCTYPE svg PUBLIC "-//W3C//DTD SVG 1.1//EN"
 "http://www.w3.org/Graphics/SVG/1.1/DTD/svg11.dtd">
<!-- Generated by graphviz version 2.47.3 (20210619.1520)
 -->
<!-- Title: dependencies Pages: 1 -->
<svg width="238pt" height="247pt"
 viewBox="0.00 0.00 238.00 246.80" xmlns="http://www.w3.org/2000/svg" xmlns:xlink="http://www.w3.org/1999/xlink">
<g id="graph0" class="graph" transform="scale(1 1) rotate(0) translate(4 242.8)">
<title>dependencies</title>
<polygon fill="white" stroke="transparent" points="-4,4 -4,-242.8 234,-242.8 234,4 -4,4"/>
<text text-anchor="middle" x="115" y="-8.2" font-family="sans-serif" font-size="14.00">dependencies</text>
<g id="clust1" class="cluster">
<title>cluster_VaccineTypeModule</title>
<polygon fill="none" stroke="black" stroke-dasharray="1,5" points="8,-32.8 8,-230.8 222,-230.8 222,-32.8 8,-32.8"/>
</g>
<g id="clust6" class="cluster">
<title>cluster_VaccineTypeModule_providers</title>
<polygon fill="none" stroke="black" points="16,-40.8 16,-92.8 214,-92.8 214,-40.8 16,-40.8"/>
</g>
<g id="clust4" class="cluster">
<title>cluster_VaccineTypeModule_exports</title>
<polygon fill="none" stroke="black" points="39,-170.8 39,-222.8 191,-222.8 191,-170.8 39,-170.8"/>
</g>
<!-- VaccineTypeService  -->
<g id="node1" class="node">
<title>VaccineTypeService </title>
<polygon fill="#fb8072" stroke="black" points="183.1,-214.8 46.9,-214.8 46.9,-178.8 183.1,-178.8 183.1,-214.8"/>
<text text-anchor="middle" x="115" y="-192.6" font-family="Times,serif" font-size="14.00">VaccineTypeService </text>
</g>
<!-- VaccineTypeModule -->
<g id="node2" class="node">
<title>VaccineTypeModule</title>
<polygon fill="#8dd3c7" stroke="black" points="182.17,-149.8 179.17,-153.8 158.17,-153.8 155.17,-149.8 47.83,-149.8 47.83,-113.8 182.17,-113.8 182.17,-149.8"/>
<text text-anchor="middle" x="115" y="-127.6" font-family="Times,serif" font-size="14.00">VaccineTypeModule</text>
</g>
<!-- VaccineTypeModule&#45;&gt;VaccineTypeService  -->
<g id="edge1" class="edge">
<title>VaccineTypeModule&#45;&gt;VaccineTypeService </title>
<path fill="none" stroke="black" stroke-dasharray="5,2" d="M115,-149.91C115,-149.91 115,-168.79 115,-168.79"/>
<polygon fill="black" stroke="black" points="111.5,-168.79 115,-178.79 118.5,-168.79 111.5,-168.79"/>
</g>
<!-- VaccineTypeService -->
<g id="node3" class="node">
<title>VaccineTypeService</title>
<ellipse fill="#fdb462" stroke="black" cx="115" cy="-66.8" rx="91.43" ry="18"/>
<text text-anchor="middle" x="115" y="-62.6" font-family="Times,serif" font-size="14.00">VaccineTypeService</text>
</g>
<!-- VaccineTypeService&#45;&gt;VaccineTypeModule -->
<g id="edge2" class="edge">
<title>VaccineTypeService&#45;&gt;VaccineTypeModule</title>
<path fill="none" stroke="black" d="M115,-84.91C115,-84.91 115,-103.79 115,-103.79"/>
<polygon fill="black" stroke="black" points="111.5,-103.79 115,-113.79 118.5,-103.79 111.5,-103.79"/>
</g>
</g>
</svg>
