<?xml version="1.0" encoding="UTF-8" standalone="no"?>
<!DOCTYPE svg PUBLIC "-//W3C//DTD SVG 1.1//EN"
 "http://www.w3.org/Graphics/SVG/1.1/DTD/svg11.dtd">
<!-- Generated by graphviz version 2.47.3 (20210619.1520)
 -->
<!-- Title: dependencies Pages: 1 -->
<svg width="316pt" height="247pt"
 viewBox="0.00 0.00 316.00 246.80" xmlns="http://www.w3.org/2000/svg" xmlns:xlink="http://www.w3.org/1999/xlink">
<g id="graph0" class="graph" transform="scale(1 1) rotate(0) translate(4 242.8)">
<title>dependencies</title>
<polygon fill="white" stroke="transparent" points="-4,4 -4,-242.8 312,-242.8 312,4 -4,4"/>
<text text-anchor="middle" x="154" y="-8.2" font-family="sans-serif" font-size="14.00">dependencies</text>
<g id="clust1" class="cluster">
<title>cluster_LoginModule</title>
<polygon fill="none" stroke="black" stroke-dasharray="1,5" points="8,-32.8 8,-230.8 300,-230.8 300,-32.8 8,-32.8"/>
</g>
<g id="clust4" class="cluster">
<title>cluster_LoginModule_exports</title>
<polygon fill="none" stroke="black" points="96,-170.8 96,-222.8 206,-222.8 206,-170.8 96,-170.8"/>
</g>
<g id="clust6" class="cluster">
<title>cluster_LoginModule_providers</title>
<polygon fill="none" stroke="black" points="16,-40.8 16,-92.8 292,-92.8 292,-40.8 16,-40.8"/>
</g>
<!-- LoginService  -->
<g id="node1" class="node">
<title>LoginService </title>
<polygon fill="#fb8072" stroke="black" points="198.42,-214.8 103.58,-214.8 103.58,-178.8 198.42,-178.8 198.42,-214.8"/>
<text text-anchor="middle" x="151" y="-192.6" font-family="Times,serif" font-size="14.00">LoginService </text>
</g>
<!-- LoginModule -->
<g id="node2" class="node">
<title>LoginModule</title>
<polygon fill="#8dd3c7" stroke="black" points="197.49,-149.8 194.49,-153.8 173.49,-153.8 170.49,-149.8 104.51,-149.8 104.51,-113.8 197.49,-113.8 197.49,-149.8"/>
<text text-anchor="middle" x="151" y="-127.6" font-family="Times,serif" font-size="14.00">LoginModule</text>
</g>
<!-- LoginModule&#45;&gt;LoginService  -->
<g id="edge1" class="edge">
<title>LoginModule&#45;&gt;LoginService </title>
<path fill="none" stroke="black" stroke-dasharray="5,2" d="M151,-149.91C151,-149.91 151,-168.79 151,-168.79"/>
<polygon fill="black" stroke="black" points="147.5,-168.79 151,-178.79 154.5,-168.79 147.5,-168.79"/>
</g>
<!-- LoginService -->
<g id="node3" class="node">
<title>LoginService</title>
<ellipse fill="#fdb462" stroke="black" cx="221" cy="-66.8" rx="63.12" ry="18"/>
<text text-anchor="middle" x="221" y="-62.6" font-family="Times,serif" font-size="14.00">LoginService</text>
</g>
<!-- LoginService&#45;&gt;LoginModule -->
<g id="edge2" class="edge">
<title>LoginService&#45;&gt;LoginModule</title>
<path fill="none" stroke="black" d="M177.72,-79.95C177.72,-79.95 177.72,-103.49 177.72,-103.49"/>
<polygon fill="black" stroke="black" points="174.22,-103.49 177.72,-113.49 181.22,-103.49 174.22,-103.49"/>
</g>
<!-- UserService -->
<g id="node4" class="node">
<title>UserService</title>
<ellipse fill="#fdb462" stroke="black" cx="82" cy="-66.8" rx="58.44" ry="18"/>
<text text-anchor="middle" x="82" y="-62.6" font-family="Times,serif" font-size="14.00">UserService</text>
</g>
<!-- UserService&#45;&gt;LoginModule -->
<g id="edge3" class="edge">
<title>UserService&#45;&gt;LoginModule</title>
<path fill="none" stroke="black" d="M122.36,-79.95C122.36,-79.95 122.36,-103.49 122.36,-103.49"/>
<polygon fill="black" stroke="black" points="118.86,-103.49 122.36,-113.49 125.86,-103.49 118.86,-103.49"/>
</g>
</g>
</svg>
