<?xml version="1.0" encoding="UTF-8" standalone="no"?>
<!DOCTYPE svg PUBLIC "-//W3C//DTD SVG 1.1//EN"
 "http://www.w3.org/Graphics/SVG/1.1/DTD/svg11.dtd">
<!-- Generated by graphviz version 2.47.3 (20210619.1520)
 -->
<!-- Title: dependencies Pages: 1 -->
<svg width="706pt" height="174pt"
 viewBox="0.00 0.00 706.00 173.80" xmlns="http://www.w3.org/2000/svg" xmlns:xlink="http://www.w3.org/1999/xlink">
<g id="graph0" class="graph" transform="scale(1 1) rotate(0) translate(4 169.8)">
<title>dependencies</title>
<polygon fill="white" stroke="transparent" points="-4,4 -4,-169.8 702,-169.8 702,4 -4,4"/>
<text text-anchor="middle" x="349" y="-8.2" font-family="sans-serif" font-size="14.00">dependencies</text>
<g id="clust1" class="cluster">
<title>cluster_AppModule</title>
<polygon fill="none" stroke="black" stroke-dasharray="1,5" points="8,-32.8 8,-157.8 690,-157.8 690,-32.8 8,-32.8"/>
</g>
<g id="clust3" class="cluster">
<title>cluster_AppModule_imports</title>
<polygon fill="none" stroke="black" points="154,-40.8 154,-92.8 682,-92.8 682,-40.8 154,-40.8"/>
</g>
<g id="clust6" class="cluster">
<title>cluster_AppModule_providers</title>
<polygon fill="none" stroke="black" points="16,-40.8 16,-92.8 146,-92.8 146,-40.8 16,-40.8"/>
</g>
<!-- LoginModule -->
<g id="node1" class="node">
<title>LoginModule</title>
<polygon fill="#8dd3c7" stroke="black" points="674.49,-84.8 671.49,-88.8 650.49,-88.8 647.49,-84.8 581.51,-84.8 581.51,-48.8 674.49,-48.8 674.49,-84.8"/>
<text text-anchor="middle" x="628" y="-62.6" font-family="Times,serif" font-size="14.00">LoginModule</text>
</g>
<!-- AppModule -->
<g id="node5" class="node">
<title>AppModule</title>
<polygon fill="#8dd3c7" stroke="black" points="428.66,-149.8 425.66,-153.8 404.66,-153.8 401.66,-149.8 345.34,-149.8 345.34,-113.8 428.66,-113.8 428.66,-149.8"/>
<text text-anchor="middle" x="387" y="-127.6" font-family="Times,serif" font-size="14.00">AppModule</text>
</g>
<!-- LoginModule&#45;&gt;AppModule -->
<g id="edge1" class="edge">
<title>LoginModule&#45;&gt;AppModule</title>
<path fill="none" stroke="black" d="M628,-85.08C628,-106.12 628,-137.8 628,-137.8 628,-137.8 438.7,-137.8 438.7,-137.8"/>
<polygon fill="black" stroke="black" points="438.7,-134.3 428.7,-137.8 438.7,-141.3 438.7,-134.3"/>
</g>
<!-- UserModule -->
<g id="node2" class="node">
<title>UserModule</title>
<polygon fill="#8dd3c7" stroke="black" points="563.98,-84.8 560.98,-88.8 539.98,-88.8 536.98,-84.8 478.02,-84.8 478.02,-48.8 563.98,-48.8 563.98,-84.8"/>
<text text-anchor="middle" x="521" y="-62.6" font-family="Times,serif" font-size="14.00">UserModule</text>
</g>
<!-- UserModule&#45;&gt;AppModule -->
<g id="edge2" class="edge">
<title>UserModule&#45;&gt;AppModule</title>
<path fill="none" stroke="black" d="M521,-84.82C521,-102.17 521,-125.8 521,-125.8 521,-125.8 438.66,-125.8 438.66,-125.8"/>
<polygon fill="black" stroke="black" points="438.66,-122.3 428.66,-125.8 438.66,-129.3 438.66,-122.3"/>
</g>
<!-- VaccineDetailsModule -->
<g id="node3" class="node">
<title>VaccineDetailsModule</title>
<polygon fill="#8dd3c7" stroke="black" points="459.56,-84.8 456.56,-88.8 435.56,-88.8 432.56,-84.8 314.44,-84.8 314.44,-48.8 459.56,-48.8 459.56,-84.8"/>
<text text-anchor="middle" x="387" y="-62.6" font-family="Times,serif" font-size="14.00">VaccineDetailsModule</text>
</g>
<!-- VaccineDetailsModule&#45;&gt;AppModule -->
<g id="edge3" class="edge">
<title>VaccineDetailsModule&#45;&gt;AppModule</title>
<path fill="none" stroke="black" d="M387,-84.91C387,-84.91 387,-103.79 387,-103.79"/>
<polygon fill="black" stroke="black" points="383.5,-103.79 387,-113.79 390.5,-103.79 383.5,-103.79"/>
</g>
<!-- VaccineTypeModule -->
<g id="node4" class="node">
<title>VaccineTypeModule</title>
<polygon fill="#8dd3c7" stroke="black" points="296.17,-84.8 293.17,-88.8 272.17,-88.8 269.17,-84.8 161.83,-84.8 161.83,-48.8 296.17,-48.8 296.17,-84.8"/>
<text text-anchor="middle" x="229" y="-62.6" font-family="Times,serif" font-size="14.00">VaccineTypeModule</text>
</g>
<!-- VaccineTypeModule&#45;&gt;AppModule -->
<g id="edge4" class="edge">
<title>VaccineTypeModule&#45;&gt;AppModule</title>
<path fill="none" stroke="black" d="M229,-84.82C229,-102.17 229,-125.8 229,-125.8 229,-125.8 335.07,-125.8 335.07,-125.8"/>
<polygon fill="black" stroke="black" points="335.07,-129.3 345.07,-125.8 335.07,-122.3 335.07,-129.3"/>
</g>
<!-- AppService -->
<g id="node6" class="node">
<title>AppService</title>
<ellipse fill="#fdb462" stroke="black" cx="81" cy="-66.8" rx="56.74" ry="18"/>
<text text-anchor="middle" x="81" y="-62.6" font-family="Times,serif" font-size="14.00">AppService</text>
</g>
<!-- AppService&#45;&gt;AppModule -->
<g id="edge5" class="edge">
<title>AppService&#45;&gt;AppModule</title>
<path fill="none" stroke="black" d="M81,-85.08C81,-106.12 81,-137.8 81,-137.8 81,-137.8 335.09,-137.8 335.09,-137.8"/>
<polygon fill="black" stroke="black" points="335.09,-141.3 345.09,-137.8 335.09,-134.3 335.09,-141.3"/>
</g>
</g>
</svg>
