<?xml version="1.0" encoding="UTF-8" standalone="no"?>
<!DOCTYPE svg PUBLIC "-//W3C//DTD SVG 1.1//EN"
 "http://www.w3.org/Graphics/SVG/1.1/DTD/svg11.dtd">
<!-- Generated by graphviz version 2.47.3 (20210619.1520)
 -->
<!-- Title: dependencies Pages: 1 -->
<svg width="732pt" height="174pt"
 viewBox="0.00 0.00 732.00 173.80" xmlns="http://www.w3.org/2000/svg" xmlns:xlink="http://www.w3.org/1999/xlink">
<g id="graph0" class="graph" transform="scale(1 1) rotate(0) translate(4 169.8)">
<title>dependencies</title>
<polygon fill="white" stroke="transparent" points="-4,4 -4,-169.8 728,-169.8 728,4 -4,4"/>
<text text-anchor="middle" x="362" y="-8.2" font-family="sans-serif" font-size="14.00">dependencies</text>
<g id="clust1" class="cluster">
<title>cluster_VaccineDetailsModule</title>
<polygon fill="none" stroke="black" stroke-dasharray="1,5" points="8,-32.8 8,-157.8 716,-157.8 716,-32.8 8,-32.8"/>
</g>
<g id="clust6" class="cluster">
<title>cluster_VaccineDetailsModule_providers</title>
<polygon fill="none" stroke="black" points="16,-40.8 16,-92.8 708,-92.8 708,-40.8 16,-40.8"/>
</g>
<!-- LoginService -->
<g id="node1" class="node">
<title>LoginService</title>
<ellipse fill="#fdb462" stroke="black" cx="637" cy="-66.8" rx="63.12" ry="18"/>
<text text-anchor="middle" x="637" y="-62.6" font-family="Times,serif" font-size="14.00">LoginService</text>
</g>
<!-- VaccineDetailsModule -->
<g id="node5" class="node">
<title>VaccineDetailsModule</title>
<polygon fill="#8dd3c7" stroke="black" points="482.56,-149.8 479.56,-153.8 458.56,-153.8 455.56,-149.8 337.44,-149.8 337.44,-113.8 482.56,-113.8 482.56,-149.8"/>
<text text-anchor="middle" x="410" y="-127.6" font-family="Times,serif" font-size="14.00">VaccineDetailsModule</text>
</g>
<!-- LoginService&#45;&gt;VaccineDetailsModule -->
<g id="edge1" class="edge">
<title>LoginService&#45;&gt;VaccineDetailsModule</title>
<path fill="none" stroke="black" d="M637,-84.91C637,-104.14 637,-131.8 637,-131.8 637,-131.8 492.76,-131.8 492.76,-131.8"/>
<polygon fill="black" stroke="black" points="492.76,-128.3 482.76,-131.8 492.76,-135.3 492.76,-128.3"/>
</g>
<!-- UserService -->
<g id="node2" class="node">
<title>UserService</title>
<ellipse fill="#fdb462" stroke="black" cx="498" cy="-66.8" rx="58.44" ry="18"/>
<text text-anchor="middle" x="498" y="-62.6" font-family="Times,serif" font-size="14.00">UserService</text>
</g>
<!-- UserService&#45;&gt;VaccineDetailsModule -->
<g id="edge2" class="edge">
<title>UserService&#45;&gt;VaccineDetailsModule</title>
<path fill="none" stroke="black" d="M461.15,-80.9C461.15,-80.9 461.15,-103.52 461.15,-103.52"/>
<polygon fill="black" stroke="black" points="457.65,-103.52 461.15,-113.52 464.65,-103.52 457.65,-103.52"/>
</g>
<!-- VaccineDetailsService -->
<g id="node3" class="node">
<title>VaccineDetailsService</title>
<ellipse fill="#fdb462" stroke="black" cx="323" cy="-66.8" rx="98.95" ry="18"/>
<text text-anchor="middle" x="323" y="-62.6" font-family="Times,serif" font-size="14.00">VaccineDetailsService</text>
</g>
<!-- VaccineDetailsService&#45;&gt;VaccineDetailsModule -->
<g id="edge3" class="edge">
<title>VaccineDetailsService&#45;&gt;VaccineDetailsModule</title>
<path fill="none" stroke="black" d="M379.72,-81.88C379.72,-81.88 379.72,-103.56 379.72,-103.56"/>
<polygon fill="black" stroke="black" points="376.22,-103.56 379.72,-113.56 383.22,-103.56 376.22,-103.56"/>
</g>
<!-- VaccineTypeService -->
<g id="node4" class="node">
<title>VaccineTypeService</title>
<ellipse fill="#fdb462" stroke="black" cx="115" cy="-66.8" rx="91.43" ry="18"/>
<text text-anchor="middle" x="115" y="-62.6" font-family="Times,serif" font-size="14.00">VaccineTypeService</text>
</g>
<!-- VaccineTypeService&#45;&gt;VaccineDetailsModule -->
<g id="edge4" class="edge">
<title>VaccineTypeService&#45;&gt;VaccineDetailsModule</title>
<path fill="none" stroke="black" d="M115,-84.91C115,-104.14 115,-131.8 115,-131.8 115,-131.8 327.46,-131.8 327.46,-131.8"/>
<polygon fill="black" stroke="black" points="327.46,-135.3 337.46,-131.8 327.46,-128.3 327.46,-135.3"/>
</g>
</g>
</svg>
